<svg xmlns="http://www.w3.org/2000/svg" viewBox="0 0 320 320" fill="none" aria-hidden="true">
  <g fill="#05070A">
    <g transform="rotate(-6 160 88)">
      <path d="M 24 68 Q 24 52 44 52 L 264 52 Q 296 52 296 88 Q 296 124 264 124 L 44 124 Q 24 124 24 108 Z"/>
    </g>
    <g transform="rotate(-4 160 176)">
      <path d="M 32 148 Q 32 132 56 132 L 256 132 Q 280 132 280 164 Q 280 200 240 200 L 56 200 Q 32 200 32 184 Z"/>
    </g>
    <g transform="rotate(-3 160 248)">
      <path d="M 80 228 Q 80 212 104 212 L 216 212 Q 240 212 240 244 Q 240 276 216 276 L 104 276 Q 80 276 80 260 Z"/>
    </g>
  </g>
</svg>
