<svg xmlns="http://www.w3.org/2000/svg" viewBox="0 0 40 40" fill="none" aria-hidden="true">
  <defs>
    <linearGradient id="bf-grad" x1="0.1" y1="0" x2="0.9" y2="1">
      <stop offset="0%" stop-color="#6FB8E4"/>
      <stop offset="55%" stop-color="#4FA1D8"/>
      <stop offset="100%" stop-color="#1F6B9E"/>
    </linearGradient>
  </defs>
  <g fill="url(#bf-grad)">
    <g transform="rotate(-6 20 11)">
      <path d="M 3 8.5 Q 3 6.5 5.5 6.5 L 33 6.5 Q 37 6.5 37 11 Q 37 15.5 33 15.5 L 5.5 15.5 Q 3 15.5 3 13.5 Z"/>
    </g>
    <g transform="rotate(-4 20 22)">
      <path d="M 4 18.5 Q 4 16.5 7 16.5 L 32 16.5 Q 35 16.5 35 20.5 Q 35 25 30 25 L 7 25 Q 4 25 4 23 Z"/>
    </g>
    <g transform="rotate(-3 20 31)">
      <path d="M 10 28.5 Q 10 26.5 13 26.5 L 27 26.5 Q 30 26.5 30 30.5 Q 30 34.5 27 34.5 L 13 34.5 Q 10 34.5 10 32.5 Z"/>
    </g>
  </g>
</svg>
